<?xml version="1.0" encoding="UTF-8"?>
<svg xmlns="http://www.w3.org/2000/svg" xmlns:xlink="http://www.w3.org/1999/xlink" width="220pt" height="72pt" viewBox="0 0 220 72" version="1.1">
<g id="surface1">
<path style="fill:none;stroke-width:8.46;stroke-linecap:butt;stroke-linejoin:round;stroke:rgb(0%,0%,0%);stroke-opacity:1;stroke-miterlimit:10;" d="M 355.507812 360 L 629.296875 161.09375 " transform="matrix(0.1,0,0,-0.1,0,72)"/>
<path style="fill:none;stroke-width:8.46;stroke-linecap:butt;stroke-linejoin:round;stroke:rgb(0%,0%,0%);stroke-opacity:1;stroke-miterlimit:10;" d="M 629.296875 161.09375 L 629.296875 558.90625 " transform="matrix(0.1,0,0,-0.1,0,72)"/>
<path style="fill:none;stroke-width:8.46;stroke-linecap:butt;stroke-linejoin:round;stroke:rgb(0%,0%,0%);stroke-opacity:1;stroke-miterlimit:10;" d="M 629.296875 558.90625 L 355.507812 360 " transform="matrix(0.1,0,0,-0.1,0,72)"/>
<path style="fill:none;stroke-width:8.46;stroke-linecap:butt;stroke-linejoin:round;stroke:rgb(0%,0%,0%);stroke-opacity:1;stroke-miterlimit:10;" d="M 355.507812 360 L 629.296875 558.90625 " transform="matrix(0.1,0,0,-0.1,0,72)"/>
<path style="fill:none;stroke-width:8.46;stroke-linecap:butt;stroke-linejoin:round;stroke:rgb(0%,0%,0%);stroke-opacity:1;stroke-miterlimit:10;" d="M 629.296875 558.90625 L 250.9375 681.835938 " transform="matrix(0.1,0,0,-0.1,0,72)"/>
<path style="fill:none;stroke-width:8.46;stroke-linecap:butt;stroke-linejoin:round;stroke:rgb(0%,0%,0%);stroke-opacity:1;stroke-miterlimit:10;" d="M 250.9375 681.835938 L 355.507812 360 " transform="matrix(0.1,0,0,-0.1,0,72)"/>
<path style="fill:none;stroke-width:8.46;stroke-linecap:butt;stroke-linejoin:round;stroke:rgb(0%,0%,0%);stroke-opacity:1;stroke-miterlimit:10;" d="M 355.507812 360 L 250.9375 681.835938 " transform="matrix(0.1,0,0,-0.1,0,72)"/>
<path style="fill:none;stroke-width:8.46;stroke-linecap:butt;stroke-linejoin:round;stroke:rgb(0%,0%,0%);stroke-opacity:1;stroke-miterlimit:10;" d="M 250.9375 681.835938 L 17.109375 360 " transform="matrix(0.1,0,0,-0.1,0,72)"/>
<path style="fill:none;stroke-width:8.46;stroke-linecap:butt;stroke-linejoin:round;stroke:rgb(0%,0%,0%);stroke-opacity:1;stroke-miterlimit:10;" d="M 17.109375 360 L 355.507812 360 " transform="matrix(0.1,0,0,-0.1,0,72)"/>
<path style="fill:none;stroke-width:8.46;stroke-linecap:butt;stroke-linejoin:round;stroke:rgb(0%,0%,0%);stroke-opacity:1;stroke-miterlimit:10;" d="M 355.507812 360 L 17.109375 360 " transform="matrix(0.1,0,0,-0.1,0,72)"/>
<path style="fill:none;stroke-width:8.46;stroke-linecap:butt;stroke-linejoin:round;stroke:rgb(0%,0%,0%);stroke-opacity:1;stroke-miterlimit:10;" d="M 17.109375 360 L 250.9375 38.164062 " transform="matrix(0.1,0,0,-0.1,0,72)"/>
<path style="fill:none;stroke-width:8.46;stroke-linecap:butt;stroke-linejoin:round;stroke:rgb(0%,0%,0%);stroke-opacity:1;stroke-miterlimit:10;" d="M 250.9375 38.164062 L 355.507812 360 " transform="matrix(0.1,0,0,-0.1,0,72)"/>
<path style="fill:none;stroke-width:8.46;stroke-linecap:butt;stroke-linejoin:round;stroke:rgb(0%,0%,0%);stroke-opacity:1;stroke-miterlimit:10;" d="M 355.507812 360 L 250.9375 38.164062 " transform="matrix(0.1,0,0,-0.1,0,72)"/>
<path style="fill:none;stroke-width:8.46;stroke-linecap:butt;stroke-linejoin:round;stroke:rgb(0%,0%,0%);stroke-opacity:1;stroke-miterlimit:10;" d="M 250.9375 38.164062 L 629.296875 161.09375 " transform="matrix(0.1,0,0,-0.1,0,72)"/>
<path style="fill:none;stroke-width:8.46;stroke-linecap:butt;stroke-linejoin:round;stroke:rgb(0%,0%,0%);stroke-opacity:1;stroke-miterlimit:10;" d="M 629.296875 161.09375 L 355.507812 360 " transform="matrix(0.1,0,0,-0.1,0,72)"/>
<path style="fill:none;stroke-width:8.46;stroke-linecap:butt;stroke-linejoin:round;stroke:rgb(0%,0%,0%);stroke-opacity:1;stroke-miterlimit:10;" d="M 1116.914062 360 L 1409.960938 190.820312 " transform="matrix(0.1,0,0,-0.1,0,72)"/>
<path style="fill:none;stroke-width:8.46;stroke-linecap:butt;stroke-linejoin:round;stroke:rgb(0%,0%,0%);stroke-opacity:1;stroke-miterlimit:10;" d="M 1409.960938 190.820312 L 1409.960938 529.179688 " transform="matrix(0.1,0,0,-0.1,0,72)"/>
<path style="fill:none;stroke-width:8.46;stroke-linecap:butt;stroke-linejoin:round;stroke:rgb(0%,0%,0%);stroke-opacity:1;stroke-miterlimit:10;" d="M 1409.960938 529.179688 L 1116.914062 360 " transform="matrix(0.1,0,0,-0.1,0,72)"/>
<path style="fill:none;stroke-width:8.46;stroke-linecap:butt;stroke-linejoin:round;stroke:rgb(0%,0%,0%);stroke-opacity:1;stroke-miterlimit:10;" d="M 1116.914062 360 L 1409.960938 529.179688 " transform="matrix(0.1,0,0,-0.1,0,72)"/>
<path style="fill:none;stroke-width:8.46;stroke-linecap:butt;stroke-linejoin:round;stroke:rgb(0%,0%,0%);stroke-opacity:1;stroke-miterlimit:10;" d="M 1409.960938 529.179688 L 1116.914062 698.398438 " transform="matrix(0.1,0,0,-0.1,0,72)"/>
<path style="fill:none;stroke-width:8.46;stroke-linecap:butt;stroke-linejoin:round;stroke:rgb(0%,0%,0%);stroke-opacity:1;stroke-miterlimit:10;" d="M 1116.914062 698.398438 L 1116.914062 360 " transform="matrix(0.1,0,0,-0.1,0,72)"/>
<path style="fill:none;stroke-width:8.46;stroke-linecap:butt;stroke-linejoin:round;stroke:rgb(0%,0%,0%);stroke-opacity:1;stroke-miterlimit:10;" d="M 1116.914062 360 L 1116.914062 698.398438 " transform="matrix(0.1,0,0,-0.1,0,72)"/>
<path style="fill:none;stroke-width:8.46;stroke-linecap:butt;stroke-linejoin:round;stroke:rgb(0%,0%,0%);stroke-opacity:1;stroke-miterlimit:10;" d="M 1116.914062 698.398438 L 823.867188 529.179688 " transform="matrix(0.1,0,0,-0.1,0,72)"/>
<path style="fill:none;stroke-width:8.46;stroke-linecap:butt;stroke-linejoin:round;stroke:rgb(0%,0%,0%);stroke-opacity:1;stroke-miterlimit:10;" d="M 823.867188 529.179688 L 1116.914062 360 " transform="matrix(0.1,0,0,-0.1,0,72)"/>
<path style="fill:none;stroke-width:8.46;stroke-linecap:butt;stroke-linejoin:round;stroke:rgb(0%,0%,0%);stroke-opacity:1;stroke-miterlimit:10;" d="M 1116.914062 360 L 823.867188 529.179688 " transform="matrix(0.1,0,0,-0.1,0,72)"/>
<path style="fill:none;stroke-width:8.46;stroke-linecap:butt;stroke-linejoin:round;stroke:rgb(0%,0%,0%);stroke-opacity:1;stroke-miterlimit:10;" d="M 823.867188 529.179688 L 823.867188 190.820312 " transform="matrix(0.1,0,0,-0.1,0,72)"/>
<path style="fill:none;stroke-width:8.46;stroke-linecap:butt;stroke-linejoin:round;stroke:rgb(0%,0%,0%);stroke-opacity:1;stroke-miterlimit:10;" d="M 823.867188 190.820312 L 1116.914062 360 " transform="matrix(0.1,0,0,-0.1,0,72)"/>
<path style="fill:none;stroke-width:8.46;stroke-linecap:butt;stroke-linejoin:round;stroke:rgb(0%,0%,0%);stroke-opacity:1;stroke-miterlimit:10;" d="M 1116.914062 360 L 823.867188 190.820312 " transform="matrix(0.1,0,0,-0.1,0,72)"/>
<path style="fill:none;stroke-width:8.46;stroke-linecap:butt;stroke-linejoin:round;stroke:rgb(0%,0%,0%);stroke-opacity:1;stroke-miterlimit:10;" d="M 823.867188 190.820312 L 1116.914062 21.601562 " transform="matrix(0.1,0,0,-0.1,0,72)"/>
<path style="fill:none;stroke-width:8.46;stroke-linecap:butt;stroke-linejoin:round;stroke:rgb(0%,0%,0%);stroke-opacity:1;stroke-miterlimit:10;" d="M 1116.914062 21.601562 L 1116.914062 360 " transform="matrix(0.1,0,0,-0.1,0,72)"/>
<path style="fill:none;stroke-width:8.46;stroke-linecap:butt;stroke-linejoin:round;stroke:rgb(0%,0%,0%);stroke-opacity:1;stroke-miterlimit:10;" d="M 1116.914062 360 L 1116.914062 21.601562 " transform="matrix(0.1,0,0,-0.1,0,72)"/>
<path style="fill:none;stroke-width:8.46;stroke-linecap:butt;stroke-linejoin:round;stroke:rgb(0%,0%,0%);stroke-opacity:1;stroke-miterlimit:10;" d="M 1116.914062 21.601562 L 1409.960938 190.820312 " transform="matrix(0.1,0,0,-0.1,0,72)"/>
<path style="fill:none;stroke-width:8.46;stroke-linecap:butt;stroke-linejoin:round;stroke:rgb(0%,0%,0%);stroke-opacity:1;stroke-miterlimit:10;" d="M 1409.960938 190.820312 L 1116.914062 360 " transform="matrix(0.1,0,0,-0.1,0,72)"/>
<path style="fill:none;stroke-width:8.46;stroke-linecap:butt;stroke-linejoin:round;stroke:rgb(0%,0%,0%);stroke-opacity:1;stroke-miterlimit:10;" d="M 1878.320312 360 L 2183.203125 213.164062 " transform="matrix(0.1,0,0,-0.1,0,72)"/>
<path style="fill:none;stroke-width:8.46;stroke-linecap:butt;stroke-linejoin:round;stroke:rgb(0%,0%,0%);stroke-opacity:1;stroke-miterlimit:10;" d="M 2183.203125 213.164062 L 2183.203125 506.835938 " transform="matrix(0.1,0,0,-0.1,0,72)"/>
<path style="fill:none;stroke-width:8.46;stroke-linecap:butt;stroke-linejoin:round;stroke:rgb(0%,0%,0%);stroke-opacity:1;stroke-miterlimit:10;" d="M 2183.203125 506.835938 L 1878.320312 360 " transform="matrix(0.1,0,0,-0.1,0,72)"/>
<path style="fill:none;stroke-width:8.46;stroke-linecap:butt;stroke-linejoin:round;stroke:rgb(0%,0%,0%);stroke-opacity:1;stroke-miterlimit:10;" d="M 1878.320312 360 L 2183.203125 506.835938 " transform="matrix(0.1,0,0,-0.1,0,72)"/>
<path style="fill:none;stroke-width:8.46;stroke-linecap:butt;stroke-linejoin:round;stroke:rgb(0%,0%,0%);stroke-opacity:1;stroke-miterlimit:10;" d="M 2183.203125 506.835938 L 1953.632812 689.921875 " transform="matrix(0.1,0,0,-0.1,0,72)"/>
<path style="fill:none;stroke-width:8.46;stroke-linecap:butt;stroke-linejoin:round;stroke:rgb(0%,0%,0%);stroke-opacity:1;stroke-miterlimit:10;" d="M 1953.632812 689.921875 L 1878.320312 360 " transform="matrix(0.1,0,0,-0.1,0,72)"/>
<path style="fill:none;stroke-width:8.46;stroke-linecap:butt;stroke-linejoin:round;stroke:rgb(0%,0%,0%);stroke-opacity:1;stroke-miterlimit:10;" d="M 1878.320312 360 L 1953.632812 689.921875 " transform="matrix(0.1,0,0,-0.1,0,72)"/>
<path style="fill:none;stroke-width:8.46;stroke-linecap:butt;stroke-linejoin:round;stroke:rgb(0%,0%,0%);stroke-opacity:1;stroke-miterlimit:10;" d="M 1953.632812 689.921875 L 1667.34375 624.570312 " transform="matrix(0.1,0,0,-0.1,0,72)"/>
<path style="fill:none;stroke-width:8.46;stroke-linecap:butt;stroke-linejoin:round;stroke:rgb(0%,0%,0%);stroke-opacity:1;stroke-miterlimit:10;" d="M 1667.34375 624.570312 L 1878.320312 360 " transform="matrix(0.1,0,0,-0.1,0,72)"/>
<path style="fill:none;stroke-width:8.46;stroke-linecap:butt;stroke-linejoin:round;stroke:rgb(0%,0%,0%);stroke-opacity:1;stroke-miterlimit:10;" d="M 1878.320312 360 L 1667.34375 624.570312 " transform="matrix(0.1,0,0,-0.1,0,72)"/>
<path style="fill:none;stroke-width:8.46;stroke-linecap:butt;stroke-linejoin:round;stroke:rgb(0%,0%,0%);stroke-opacity:1;stroke-miterlimit:10;" d="M 1667.34375 624.570312 L 1539.921875 360 " transform="matrix(0.1,0,0,-0.1,0,72)"/>
<path style="fill:none;stroke-width:8.46;stroke-linecap:butt;stroke-linejoin:round;stroke:rgb(0%,0%,0%);stroke-opacity:1;stroke-miterlimit:10;" d="M 1539.921875 360 L 1878.320312 360 " transform="matrix(0.1,0,0,-0.1,0,72)"/>
<path style="fill:none;stroke-width:8.46;stroke-linecap:butt;stroke-linejoin:round;stroke:rgb(0%,0%,0%);stroke-opacity:1;stroke-miterlimit:10;" d="M 1878.320312 360 L 1539.921875 360 " transform="matrix(0.1,0,0,-0.1,0,72)"/>
<path style="fill:none;stroke-width:8.46;stroke-linecap:butt;stroke-linejoin:round;stroke:rgb(0%,0%,0%);stroke-opacity:1;stroke-miterlimit:10;" d="M 1539.921875 360 L 1667.34375 95.429688 " transform="matrix(0.1,0,0,-0.1,0,72)"/>
<path style="fill:none;stroke-width:8.46;stroke-linecap:butt;stroke-linejoin:round;stroke:rgb(0%,0%,0%);stroke-opacity:1;stroke-miterlimit:10;" d="M 1667.34375 95.429688 L 1878.320312 360 " transform="matrix(0.1,0,0,-0.1,0,72)"/>
<path style="fill:none;stroke-width:8.46;stroke-linecap:butt;stroke-linejoin:round;stroke:rgb(0%,0%,0%);stroke-opacity:1;stroke-miterlimit:10;" d="M 1878.320312 360 L 1667.34375 95.429688 " transform="matrix(0.1,0,0,-0.1,0,72)"/>
<path style="fill:none;stroke-width:8.46;stroke-linecap:butt;stroke-linejoin:round;stroke:rgb(0%,0%,0%);stroke-opacity:1;stroke-miterlimit:10;" d="M 1667.34375 95.429688 L 1953.632812 30.078125 " transform="matrix(0.1,0,0,-0.1,0,72)"/>
<path style="fill:none;stroke-width:8.46;stroke-linecap:butt;stroke-linejoin:round;stroke:rgb(0%,0%,0%);stroke-opacity:1;stroke-miterlimit:10;" d="M 1953.632812 30.078125 L 1878.320312 360 " transform="matrix(0.1,0,0,-0.1,0,72)"/>
<path style="fill:none;stroke-width:8.46;stroke-linecap:butt;stroke-linejoin:round;stroke:rgb(0%,0%,0%);stroke-opacity:1;stroke-miterlimit:10;" d="M 1878.320312 360 L 1953.632812 30.078125 " transform="matrix(0.1,0,0,-0.1,0,72)"/>
<path style="fill:none;stroke-width:8.46;stroke-linecap:butt;stroke-linejoin:round;stroke:rgb(0%,0%,0%);stroke-opacity:1;stroke-miterlimit:10;" d="M 1953.632812 30.078125 L 2183.203125 213.164062 " transform="matrix(0.1,0,0,-0.1,0,72)"/>
<path style="fill:none;stroke-width:8.46;stroke-linecap:butt;stroke-linejoin:round;stroke:rgb(0%,0%,0%);stroke-opacity:1;stroke-miterlimit:10;" d="M 2183.203125 213.164062 L 1878.320312 360 " transform="matrix(0.1,0,0,-0.1,0,72)"/>
</g>
</svg>
