<?xml version="1.0" encoding="UTF-8"?>
<svg xmlns="http://www.w3.org/2000/svg" xmlns:xlink="http://www.w3.org/1999/xlink" width="657pt" height="158pt" viewBox="0 0 657 158" version="1.1">
<defs>
<clipPath id="clip1">
  <path d="M 48 111 L 67 111 L 67 113 L 48 113 Z M 48 111 "/>
</clipPath>
<clipPath id="clip2">
  <path d="M 0 0 L 0 158 L 657 158 L 657 0 Z M 57.359375 113.777344 L 66.933594 113.777344 L 66.933594 110 L 57.359375 110 L 64.917969 111.890625 Z M 57.359375 113.777344 "/>
</clipPath>
<clipPath id="clip3">
  <path d="M 156 9 L 174 9 L 174 11 L 156 11 Z M 156 9 "/>
</clipPath>
<clipPath id="clip4">
  <path d="M 0 0 L 0 158 L 657 158 L 657 0 Z M 165.074219 11.734375 L 174.648438 11.734375 L 174.648438 7.957031 L 165.074219 7.957031 L 172.632812 9.84375 Z M 165.074219 11.734375 "/>
</clipPath>
<clipPath id="clip5">
  <path d="M 85 77 L 104 77 L 104 79 L 85 79 Z M 85 77 "/>
</clipPath>
<clipPath id="clip6">
  <path d="M 0 0 L 0 158 L 657 158 L 657 0 Z M 94.210938 79.765625 L 103.78125 79.765625 L 103.78125 75.984375 L 94.210938 75.984375 L 101.769531 77.875 Z M 94.210938 79.765625 "/>
</clipPath>
</defs>
<g id="surface1">
<path style="fill:none;stroke-width:4.72425;stroke-linecap:butt;stroke-linejoin:miter;stroke:rgb(0%,0%,0%);stroke-opacity:1;stroke-miterlimit:10;" d="M 7.929688 7.578125 L 178.007812 7.578125 L 178.007812 177.65625 L 7.929688 177.65625 Z M 7.929688 7.578125 " transform="matrix(0.1,0,0,-0.1,0,158)"/>
<path style="fill:none;stroke-width:4.72425;stroke-linecap:butt;stroke-linejoin:miter;stroke:rgb(0%,0%,0%);stroke-opacity:1;stroke-miterlimit:10;" d="M 178.007812 7.578125 L 348.085938 7.578125 L 348.085938 177.65625 L 178.007812 177.65625 Z M 178.007812 7.578125 " transform="matrix(0.1,0,0,-0.1,0,158)"/>
<path style="fill:none;stroke-width:4.72425;stroke-linecap:butt;stroke-linejoin:miter;stroke:rgb(0%,0%,0%);stroke-opacity:1;stroke-miterlimit:10;" d="M 376.445312 7.578125 L 546.523438 7.578125 L 546.523438 177.65625 L 376.445312 177.65625 Z M 376.445312 7.578125 " transform="matrix(0.1,0,0,-0.1,0,158)"/>
<path style="fill:none;stroke-width:4.72425;stroke-linecap:butt;stroke-linejoin:miter;stroke:rgb(0%,0%,0%);stroke-opacity:1;stroke-miterlimit:10;" d="M 546.523438 7.578125 L 716.601562 7.578125 L 716.601562 177.65625 L 546.523438 177.65625 Z M 546.523438 7.578125 " transform="matrix(0.1,0,0,-0.1,0,158)"/>
<path style="fill:none;stroke-width:4.72425;stroke-linecap:butt;stroke-linejoin:miter;stroke:rgb(0%,0%,0%);stroke-opacity:1;stroke-miterlimit:10;" d="M 744.921875 7.578125 L 915 7.578125 L 915 177.65625 L 744.921875 177.65625 Z M 744.921875 7.578125 " transform="matrix(0.1,0,0,-0.1,0,158)"/>
<path style="fill:none;stroke-width:4.72425;stroke-linecap:butt;stroke-linejoin:miter;stroke:rgb(0%,0%,0%);stroke-opacity:1;stroke-miterlimit:10;" d="M 915 7.578125 L 1085.078125 7.578125 L 1085.078125 177.65625 L 915 177.65625 Z M 915 7.578125 " transform="matrix(0.1,0,0,-0.1,0,158)"/>
<path style="fill:none;stroke-width:4.72425;stroke-linecap:butt;stroke-linejoin:miter;stroke:rgb(0%,0%,0%);stroke-opacity:1;stroke-miterlimit:10;" d="M 1085.078125 7.578125 L 1255.15625 7.578125 L 1255.15625 177.65625 L 1085.078125 177.65625 Z M 1085.078125 7.578125 " transform="matrix(0.1,0,0,-0.1,0,158)"/>
<path style="fill:none;stroke-width:4.72425;stroke-linecap:butt;stroke-linejoin:miter;stroke:rgb(0%,0%,0%);stroke-opacity:1;stroke-miterlimit:10;" d="M 1255.15625 7.578125 L 1425.234375 7.578125 L 1425.234375 177.65625 L 1255.15625 177.65625 Z M 1255.15625 7.578125 " transform="matrix(0.1,0,0,-0.1,0,158)"/>
<path style="fill:none;stroke-width:4.72425;stroke-linecap:butt;stroke-linejoin:miter;stroke:rgb(0%,0%,0%);stroke-opacity:1;stroke-miterlimit:10;" d="M 1453.554688 7.578125 L 1623.632812 7.578125 L 1623.632812 177.65625 L 1453.554688 177.65625 Z M 1453.554688 7.578125 " transform="matrix(0.1,0,0,-0.1,0,158)"/>
<path style="fill:none;stroke-width:4.72425;stroke-linecap:butt;stroke-linejoin:miter;stroke:rgb(0%,0%,0%);stroke-opacity:1;stroke-miterlimit:10;" d="M 1623.632812 7.578125 L 1793.710938 7.578125 L 1793.710938 177.65625 L 1623.632812 177.65625 Z M 1623.632812 7.578125 " transform="matrix(0.1,0,0,-0.1,0,158)"/>
<path style="fill:none;stroke-width:4.72425;stroke-linecap:butt;stroke-linejoin:miter;stroke:rgb(0%,0%,0%);stroke-opacity:1;stroke-miterlimit:10;" d="M 1793.710938 7.578125 L 1963.789062 7.578125 L 1963.789062 177.65625 L 1793.710938 177.65625 Z M 1793.710938 7.578125 " transform="matrix(0.1,0,0,-0.1,0,158)"/>
<path style="fill:none;stroke-width:4.72425;stroke-linecap:butt;stroke-linejoin:miter;stroke:rgb(0%,0%,0%);stroke-opacity:1;stroke-miterlimit:10;" d="M 1963.789062 7.578125 L 2133.867188 7.578125 L 2133.867188 177.65625 L 1963.789062 177.65625 Z M 1963.789062 7.578125 " transform="matrix(0.1,0,0,-0.1,0,158)"/>
<path style="fill:none;stroke-width:4.72425;stroke-linecap:butt;stroke-linejoin:miter;stroke:rgb(0%,0%,0%);stroke-opacity:1;stroke-miterlimit:10;" d="M 2133.867188 7.578125 L 2303.945312 7.578125 L 2303.945312 177.65625 L 2133.867188 177.65625 Z M 2133.867188 7.578125 " transform="matrix(0.1,0,0,-0.1,0,158)"/>
<path style="fill:none;stroke-width:4.72425;stroke-linecap:butt;stroke-linejoin:miter;stroke:rgb(0%,0%,0%);stroke-opacity:1;stroke-miterlimit:10;" d="M 2303.945312 7.578125 L 2473.984375 7.578125 L 2473.984375 177.65625 L 2303.945312 177.65625 Z M 2303.945312 7.578125 " transform="matrix(0.1,0,0,-0.1,0,158)"/>
<path style="fill:none;stroke-width:4.72425;stroke-linecap:butt;stroke-linejoin:miter;stroke:rgb(0%,0%,0%);stroke-opacity:1;stroke-miterlimit:10;" d="M 2473.984375 7.578125 L 2644.0625 7.578125 L 2644.0625 177.65625 L 2473.984375 177.65625 Z M 2473.984375 7.578125 " transform="matrix(0.1,0,0,-0.1,0,158)"/>
<path style="fill:none;stroke-width:4.72425;stroke-linecap:butt;stroke-linejoin:miter;stroke:rgb(0%,0%,0%);stroke-opacity:1;stroke-miterlimit:10;" d="M 2644.0625 7.578125 L 2814.140625 7.578125 L 2814.140625 177.65625 L 2644.0625 177.65625 Z M 2644.0625 7.578125 " transform="matrix(0.1,0,0,-0.1,0,158)"/>
<path style="fill:none;stroke-width:4.72425;stroke-linecap:butt;stroke-linejoin:miter;stroke:rgb(0%,0%,0%);stroke-opacity:1;stroke-miterlimit:10;" d="M 3749.53125 7.578125 L 3919.609375 7.578125 L 3919.609375 177.65625 L 3749.53125 177.65625 Z M 3749.53125 7.578125 " transform="matrix(0.1,0,0,-0.1,0,158)"/>
<path style="fill:none;stroke-width:4.72425;stroke-linecap:butt;stroke-linejoin:miter;stroke:rgb(0%,0%,0%);stroke-opacity:1;stroke-miterlimit:10;" d="M 3919.609375 7.578125 L 4089.6875 7.578125 L 4089.6875 177.65625 L 3919.609375 177.65625 Z M 3919.609375 7.578125 " transform="matrix(0.1,0,0,-0.1,0,158)"/>
<path style="fill:none;stroke-width:4.72425;stroke-linecap:butt;stroke-linejoin:miter;stroke:rgb(0%,0%,0%);stroke-opacity:1;stroke-miterlimit:10;" d="M 4118.046875 7.578125 L 4288.125 7.578125 L 4288.125 177.65625 L 4118.046875 177.65625 Z M 4118.046875 7.578125 " transform="matrix(0.1,0,0,-0.1,0,158)"/>
<path style="fill:none;stroke-width:4.72425;stroke-linecap:butt;stroke-linejoin:miter;stroke:rgb(0%,0%,0%);stroke-opacity:1;stroke-miterlimit:10;" d="M 4288.125 7.578125 L 4458.203125 7.578125 L 4458.203125 177.65625 L 4288.125 177.65625 Z M 4288.125 7.578125 " transform="matrix(0.1,0,0,-0.1,0,158)"/>
<path style="fill:none;stroke-width:4.72425;stroke-linecap:butt;stroke-linejoin:miter;stroke:rgb(0%,0%,0%);stroke-opacity:1;stroke-miterlimit:10;" d="M 4486.523438 7.578125 L 4656.601562 7.578125 L 4656.601562 177.65625 L 4486.523438 177.65625 Z M 4486.523438 7.578125 " transform="matrix(0.1,0,0,-0.1,0,158)"/>
<path style="fill:none;stroke-width:4.72425;stroke-linecap:butt;stroke-linejoin:miter;stroke:rgb(0%,0%,0%);stroke-opacity:1;stroke-miterlimit:10;" d="M 4656.601562 7.578125 L 4826.679688 7.578125 L 4826.679688 177.65625 L 4656.601562 177.65625 Z M 4656.601562 7.578125 " transform="matrix(0.1,0,0,-0.1,0,158)"/>
<path style="fill:none;stroke-width:4.72425;stroke-linecap:butt;stroke-linejoin:miter;stroke:rgb(0%,0%,0%);stroke-opacity:1;stroke-miterlimit:10;" d="M 4826.679688 7.578125 L 4996.757812 7.578125 L 4996.757812 177.65625 L 4826.679688 177.65625 Z M 4826.679688 7.578125 " transform="matrix(0.1,0,0,-0.1,0,158)"/>
<path style="fill:none;stroke-width:4.72425;stroke-linecap:butt;stroke-linejoin:miter;stroke:rgb(0%,0%,0%);stroke-opacity:1;stroke-miterlimit:10;" d="M 4996.757812 7.578125 L 5166.835938 7.578125 L 5166.835938 177.65625 L 4996.757812 177.65625 Z M 4996.757812 7.578125 " transform="matrix(0.1,0,0,-0.1,0,158)"/>
<path style="fill:none;stroke-width:4.72425;stroke-linecap:butt;stroke-linejoin:miter;stroke:rgb(0%,0%,0%);stroke-opacity:1;stroke-miterlimit:10;" d="M 5195.15625 7.578125 L 5365.234375 7.578125 L 5365.234375 177.65625 L 5195.15625 177.65625 Z M 5195.15625 7.578125 " transform="matrix(0.1,0,0,-0.1,0,158)"/>
<path style="fill:none;stroke-width:4.72425;stroke-linecap:butt;stroke-linejoin:miter;stroke:rgb(0%,0%,0%);stroke-opacity:1;stroke-miterlimit:10;" d="M 5365.234375 7.578125 L 5535.3125 7.578125 L 5535.3125 177.65625 L 5365.234375 177.65625 Z M 5365.234375 7.578125 " transform="matrix(0.1,0,0,-0.1,0,158)"/>
<path style="fill:none;stroke-width:4.72425;stroke-linecap:butt;stroke-linejoin:miter;stroke:rgb(0%,0%,0%);stroke-opacity:1;stroke-miterlimit:10;" d="M 5535.3125 7.578125 L 5705.390625 7.578125 L 5705.390625 177.65625 L 5535.3125 177.65625 Z M 5535.3125 7.578125 " transform="matrix(0.1,0,0,-0.1,0,158)"/>
<path style="fill:none;stroke-width:4.72425;stroke-linecap:butt;stroke-linejoin:miter;stroke:rgb(0%,0%,0%);stroke-opacity:1;stroke-miterlimit:10;" d="M 5705.390625 7.578125 L 5875.46875 7.578125 L 5875.46875 177.65625 L 5705.390625 177.65625 Z M 5705.390625 7.578125 " transform="matrix(0.1,0,0,-0.1,0,158)"/>
<path style="fill:none;stroke-width:4.72425;stroke-linecap:butt;stroke-linejoin:miter;stroke:rgb(0%,0%,0%);stroke-opacity:1;stroke-miterlimit:10;" d="M 5875.46875 7.578125 L 6045.546875 7.578125 L 6045.546875 177.65625 L 5875.46875 177.65625 Z M 5875.46875 7.578125 " transform="matrix(0.1,0,0,-0.1,0,158)"/>
<path style="fill:none;stroke-width:4.72425;stroke-linecap:butt;stroke-linejoin:miter;stroke:rgb(0%,0%,0%);stroke-opacity:1;stroke-miterlimit:10;" d="M 6045.546875 7.578125 L 6215.625 7.578125 L 6215.625 177.65625 L 6045.546875 177.65625 Z M 6045.546875 7.578125 " transform="matrix(0.1,0,0,-0.1,0,158)"/>
<path style="fill:none;stroke-width:4.72425;stroke-linecap:butt;stroke-linejoin:miter;stroke:rgb(0%,0%,0%);stroke-opacity:1;stroke-miterlimit:10;" d="M 6215.625 7.578125 L 6385.664062 7.578125 L 6385.664062 177.65625 L 6215.625 177.65625 Z M 6215.625 7.578125 " transform="matrix(0.1,0,0,-0.1,0,158)"/>
<path style="fill:none;stroke-width:4.72425;stroke-linecap:butt;stroke-linejoin:miter;stroke:rgb(0%,0%,0%);stroke-opacity:1;stroke-miterlimit:10;" d="M 6385.664062 7.578125 L 6555.742188 7.578125 L 6555.742188 177.65625 L 6385.664062 177.65625 Z M 6385.664062 7.578125 " transform="matrix(0.1,0,0,-0.1,0,158)"/>
<path style="fill:none;stroke-width:4.72425;stroke-linecap:butt;stroke-linejoin:miter;stroke:rgb(0%,0%,0%);stroke-opacity:1;stroke-miterlimit:10;" d="M 376.445312 205.976562 L 546.523438 205.976562 L 546.523438 376.054688 L 376.445312 376.054688 Z M 376.445312 205.976562 " transform="matrix(0.1,0,0,-0.1,0,158)"/>
<path style="fill:none;stroke-width:4.72425;stroke-linecap:butt;stroke-linejoin:miter;stroke:rgb(0%,0%,0%);stroke-opacity:1;stroke-miterlimit:10;" d="M 376.445312 376.054688 L 546.523438 376.054688 L 546.523438 546.132812 L 376.445312 546.132812 Z M 376.445312 376.054688 " transform="matrix(0.1,0,0,-0.1,0,158)"/>
<path style="fill:none;stroke-width:4.72425;stroke-linecap:butt;stroke-linejoin:miter;stroke:rgb(0%,0%,0%);stroke-opacity:1;stroke-miterlimit:10;" d="M 744.921875 205.976562 L 915 205.976562 L 915 376.054688 L 744.921875 376.054688 Z M 744.921875 205.976562 " transform="matrix(0.1,0,0,-0.1,0,158)"/>
<path style="fill:none;stroke-width:4.72425;stroke-linecap:butt;stroke-linejoin:miter;stroke:rgb(0%,0%,0%);stroke-opacity:1;stroke-miterlimit:10;" d="M 744.921875 376.054688 L 915 376.054688 L 915 546.132812 L 744.921875 546.132812 Z M 744.921875 376.054688 " transform="matrix(0.1,0,0,-0.1,0,158)"/>
<path style="fill:none;stroke-width:4.72425;stroke-linecap:butt;stroke-linejoin:miter;stroke:rgb(0%,0%,0%);stroke-opacity:1;stroke-miterlimit:10;" d="M 744.921875 546.132812 L 915 546.132812 L 915 716.210938 L 744.921875 716.210938 Z M 744.921875 546.132812 " transform="matrix(0.1,0,0,-0.1,0,158)"/>
<path style="fill:none;stroke-width:4.72425;stroke-linecap:butt;stroke-linejoin:miter;stroke:rgb(0%,0%,0%);stroke-opacity:1;stroke-miterlimit:10;" d="M 744.921875 716.210938 L 915 716.210938 L 915 886.289062 L 744.921875 886.289062 Z M 744.921875 716.210938 " transform="matrix(0.1,0,0,-0.1,0,158)"/>
<path style="fill:none;stroke-width:4.72425;stroke-linecap:butt;stroke-linejoin:miter;stroke:rgb(0%,0%,0%);stroke-opacity:1;stroke-miterlimit:10;" d="M 1453.554688 205.976562 L 1623.632812 205.976562 L 1623.632812 376.054688 L 1453.554688 376.054688 Z M 1453.554688 205.976562 " transform="matrix(0.1,0,0,-0.1,0,158)"/>
<path style="fill:none;stroke-width:4.72425;stroke-linecap:butt;stroke-linejoin:miter;stroke:rgb(0%,0%,0%);stroke-opacity:1;stroke-miterlimit:10;" d="M 1453.554688 376.054688 L 1623.632812 376.054688 L 1623.632812 546.132812 L 1453.554688 546.132812 Z M 1453.554688 376.054688 " transform="matrix(0.1,0,0,-0.1,0,158)"/>
<path style="fill:none;stroke-width:4.72425;stroke-linecap:butt;stroke-linejoin:miter;stroke:rgb(0%,0%,0%);stroke-opacity:1;stroke-miterlimit:10;" d="M 1453.554688 546.132812 L 1623.632812 546.132812 L 1623.632812 716.210938 L 1453.554688 716.210938 Z M 1453.554688 546.132812 " transform="matrix(0.1,0,0,-0.1,0,158)"/>
<path style="fill:none;stroke-width:4.72425;stroke-linecap:butt;stroke-linejoin:miter;stroke:rgb(0%,0%,0%);stroke-opacity:1;stroke-miterlimit:10;" d="M 1453.554688 716.210938 L 1623.632812 716.210938 L 1623.632812 886.289062 L 1453.554688 886.289062 Z M 1453.554688 716.210938 " transform="matrix(0.1,0,0,-0.1,0,158)"/>
<path style="fill:none;stroke-width:4.72425;stroke-linecap:butt;stroke-linejoin:miter;stroke:rgb(0%,0%,0%);stroke-opacity:1;stroke-miterlimit:10;" d="M 1453.554688 886.289062 L 1623.632812 886.289062 L 1623.632812 1056.367188 L 1453.554688 1056.367188 Z M 1453.554688 886.289062 " transform="matrix(0.1,0,0,-0.1,0,158)"/>
<path style="fill:none;stroke-width:4.72425;stroke-linecap:butt;stroke-linejoin:miter;stroke:rgb(0%,0%,0%);stroke-opacity:1;stroke-miterlimit:10;" d="M 1453.554688 1056.367188 L 1623.632812 1056.367188 L 1623.632812 1226.445312 L 1453.554688 1226.445312 Z M 1453.554688 1056.367188 " transform="matrix(0.1,0,0,-0.1,0,158)"/>
<path style="fill:none;stroke-width:4.72425;stroke-linecap:butt;stroke-linejoin:miter;stroke:rgb(0%,0%,0%);stroke-opacity:1;stroke-miterlimit:10;" d="M 1453.554688 1226.445312 L 1623.632812 1226.445312 L 1623.632812 1396.523438 L 1453.554688 1396.523438 Z M 1453.554688 1226.445312 " transform="matrix(0.1,0,0,-0.1,0,158)"/>
<path style="fill:none;stroke-width:4.72425;stroke-linecap:butt;stroke-linejoin:miter;stroke:rgb(0%,0%,0%);stroke-opacity:1;stroke-miterlimit:10;" d="M 1453.554688 1396.523438 L 1623.632812 1396.523438 L 1623.632812 1566.601562 L 1453.554688 1566.601562 Z M 1453.554688 1396.523438 " transform="matrix(0.1,0,0,-0.1,0,158)"/>
<path style="fill:none;stroke-width:4.72425;stroke-linecap:butt;stroke-linejoin:miter;stroke:rgb(0%,0%,0%);stroke-opacity:1;stroke-miterlimit:10;" d="M 5195.15625 205.976562 L 5365.234375 205.976562 L 5365.234375 376.054688 L 5195.15625 376.054688 Z M 5195.15625 205.976562 " transform="matrix(0.1,0,0,-0.1,0,158)"/>
<path style="fill:none;stroke-width:4.72425;stroke-linecap:butt;stroke-linejoin:miter;stroke:rgb(0%,0%,0%);stroke-opacity:1;stroke-miterlimit:10;" d="M 5365.234375 205.976562 L 5535.3125 205.976562 L 5535.3125 376.054688 L 5365.234375 376.054688 Z M 5365.234375 205.976562 " transform="matrix(0.1,0,0,-0.1,0,158)"/>
<path style="fill:none;stroke-width:4.72425;stroke-linecap:butt;stroke-linejoin:miter;stroke:rgb(0%,0%,0%);stroke-opacity:1;stroke-miterlimit:10;" d="M 5535.3125 205.976562 L 5705.390625 205.976562 L 5705.390625 376.054688 L 5535.3125 376.054688 Z M 5535.3125 205.976562 " transform="matrix(0.1,0,0,-0.1,0,158)"/>
<path style="fill:none;stroke-width:4.72425;stroke-linecap:butt;stroke-linejoin:miter;stroke:rgb(0%,0%,0%);stroke-opacity:1;stroke-miterlimit:10;" d="M 5705.390625 205.976562 L 5875.46875 205.976562 L 5875.46875 376.054688 L 5705.390625 376.054688 Z M 5705.390625 205.976562 " transform="matrix(0.1,0,0,-0.1,0,158)"/>
<path style="fill:none;stroke-width:4.72425;stroke-linecap:butt;stroke-linejoin:miter;stroke:rgb(0%,0%,0%);stroke-opacity:1;stroke-miterlimit:10;" d="M 5875.46875 205.976562 L 6045.546875 205.976562 L 6045.546875 376.054688 L 5875.46875 376.054688 Z M 5875.46875 205.976562 " transform="matrix(0.1,0,0,-0.1,0,158)"/>
<path style="fill:none;stroke-width:4.72425;stroke-linecap:butt;stroke-linejoin:miter;stroke:rgb(0%,0%,0%);stroke-opacity:1;stroke-miterlimit:10;" d="M 6045.546875 205.976562 L 6215.625 205.976562 L 6215.625 376.054688 L 6045.546875 376.054688 Z M 6045.546875 205.976562 " transform="matrix(0.1,0,0,-0.1,0,158)"/>
<path style="fill:none;stroke-width:4.72425;stroke-linecap:butt;stroke-linejoin:miter;stroke:rgb(0%,0%,0%);stroke-opacity:1;stroke-miterlimit:10;" d="M 6215.625 205.976562 L 6385.664062 205.976562 L 6385.664062 376.054688 L 6215.625 376.054688 Z M 6215.625 205.976562 " transform="matrix(0.1,0,0,-0.1,0,158)"/>
<path style="fill:none;stroke-width:4.72425;stroke-linecap:butt;stroke-linejoin:miter;stroke:rgb(0%,0%,0%);stroke-opacity:1;stroke-miterlimit:10;" d="M 6385.664062 205.976562 L 6555.742188 205.976562 L 6555.742188 376.054688 L 6385.664062 376.054688 Z M 6385.664062 205.976562 " transform="matrix(0.1,0,0,-0.1,0,158)"/>
<path style="fill:none;stroke-width:4.72425;stroke-linecap:butt;stroke-linejoin:miter;stroke:rgb(0%,0%,0%);stroke-opacity:1;stroke-miterlimit:10;" d="M 4486.523438 205.976562 L 4656.601562 205.976562 L 4656.601562 376.054688 L 4486.523438 376.054688 Z M 4486.523438 205.976562 " transform="matrix(0.1,0,0,-0.1,0,158)"/>
<path style="fill:none;stroke-width:4.72425;stroke-linecap:butt;stroke-linejoin:miter;stroke:rgb(0%,0%,0%);stroke-opacity:1;stroke-miterlimit:10;" d="M 4656.601562 205.976562 L 4826.679688 205.976562 L 4826.679688 376.054688 L 4656.601562 376.054688 Z M 4656.601562 205.976562 " transform="matrix(0.1,0,0,-0.1,0,158)"/>
<path style="fill:none;stroke-width:4.72425;stroke-linecap:butt;stroke-linejoin:miter;stroke:rgb(0%,0%,0%);stroke-opacity:1;stroke-miterlimit:10;" d="M 4826.679688 205.976562 L 4996.757812 205.976562 L 4996.757812 376.054688 L 4826.679688 376.054688 Z M 4826.679688 205.976562 " transform="matrix(0.1,0,0,-0.1,0,158)"/>
<path style="fill:none;stroke-width:4.72425;stroke-linecap:butt;stroke-linejoin:miter;stroke:rgb(0%,0%,0%);stroke-opacity:1;stroke-miterlimit:10;" d="M 4996.757812 205.976562 L 5166.835938 205.976562 L 5166.835938 376.054688 L 4996.757812 376.054688 Z M 4996.757812 205.976562 " transform="matrix(0.1,0,0,-0.1,0,158)"/>
<path style="fill:none;stroke-width:4.72425;stroke-linecap:butt;stroke-linejoin:miter;stroke:rgb(0%,0%,0%);stroke-opacity:1;stroke-miterlimit:10;" d="M 4118.046875 205.976562 L 4288.125 205.976562 L 4288.125 376.054688 L 4118.046875 376.054688 Z M 4118.046875 205.976562 " transform="matrix(0.1,0,0,-0.1,0,158)"/>
<path style="fill:none;stroke-width:4.72425;stroke-linecap:butt;stroke-linejoin:miter;stroke:rgb(0%,0%,0%);stroke-opacity:1;stroke-miterlimit:10;" d="M 4288.125 205.976562 L 4458.203125 205.976562 L 4458.203125 376.054688 L 4288.125 376.054688 Z M 4288.125 205.976562 " transform="matrix(0.1,0,0,-0.1,0,158)"/>
<g clip-path="url(#clip1)" clip-rule="nonzero">
<g clip-path="url(#clip2)" clip-rule="evenodd">
<path style="fill:none;stroke-width:4.72425;stroke-linecap:butt;stroke-linejoin:miter;stroke:rgb(0%,0%,0%);stroke-opacity:1;stroke-miterlimit:10;" d="M 489.804688 461.09375 L 659.882812 461.09375 " transform="matrix(0.1,0,0,-0.1,0,158)"/>
</g>
</g>
<path style="fill:none;stroke-width:4.72425;stroke-linecap:butt;stroke-linejoin:miter;stroke:rgb(0%,0%,0%);stroke-opacity:1;stroke-miterlimit:10;" d="M 573.59375 442.226562 L 649.179688 461.09375 L 573.59375 480 " transform="matrix(0.1,0,0,-0.1,0,158)"/>
<g clip-path="url(#clip3)" clip-rule="nonzero">
<g clip-path="url(#clip4)" clip-rule="evenodd">
<path style="fill:none;stroke-width:4.72425;stroke-linecap:butt;stroke-linejoin:miter;stroke:rgb(0%,0%,0%);stroke-opacity:1;stroke-miterlimit:10;" d="M 1566.953125 1481.5625 L 1737.03125 1481.5625 " transform="matrix(0.1,0,0,-0.1,0,158)"/>
</g>
</g>
<path style="fill:none;stroke-width:4.72425;stroke-linecap:butt;stroke-linejoin:miter;stroke:rgb(0%,0%,0%);stroke-opacity:1;stroke-miterlimit:10;" d="M 1650.742188 1462.65625 L 1726.328125 1481.5625 L 1650.742188 1500.429688 " transform="matrix(0.1,0,0,-0.1,0,158)"/>
<g clip-path="url(#clip5)" clip-rule="nonzero">
<g clip-path="url(#clip6)" clip-rule="evenodd">
<path style="fill:none;stroke-width:4.72425;stroke-linecap:butt;stroke-linejoin:miter;stroke:rgb(0%,0%,0%);stroke-opacity:1;stroke-miterlimit:10;" d="M 858.320312 801.25 L 1028.398438 801.25 " transform="matrix(0.1,0,0,-0.1,0,158)"/>
</g>
</g>
<path style="fill:none;stroke-width:4.72425;stroke-linecap:butt;stroke-linejoin:miter;stroke:rgb(0%,0%,0%);stroke-opacity:1;stroke-miterlimit:10;" d="M 942.109375 782.34375 L 1017.695312 801.25 L 942.109375 820.15625 " transform="matrix(0.1,0,0,-0.1,0,158)"/>
</g>
</svg>
